{"title":"WILLY DeVILLE-UNPLUGGED-THE BERLIN CONCERTS 2002-(Y)(Ã‚Â°UÃ‚Â°)","uid":5842578,"size":1607305618,"categoryP":"video","categoryS":"music_videos","magnet":"?xt=urn:btih:c3778841d596a3c8aff0bd710522281e71ad35d1&amp;dn=WILLY+DeVILLE-UNPLUGGED-THE+BERLIN+CONCERTS+2002-%28Y%29%28%C3%82%C2%B0U%C3%82%C2%B0%29&amp;tr=udp%3A%2F%2Ftracker.openbittorrent.com%3A80&amp;tr=udp%3A%2F%2Fopen.demonii.com%3A1337&amp;tr=udp%3A%2F%2Ftracker.coppersurfer.tk%3A6969&amp;tr=udp%3A%2F%2Fexodus.desync.com%3A6969","seeders":0,"leechers":0,"uploader":"GENERAL19","files":2,"time":1285023292,"description":"General\nComplete name                    : WILLY DeVILLE-UNPLUGGED-THE BERLIN CONCERTS 2002-(Y)(Ã‚Â°UÃ‚Â°).mkv\nFormat                           : Matroska\nFile size                        : 1.50 GiB\nDuration                         : 1h 31mn\nOverall bit rate                 : 2 348 Kbps\nMovie name                       : WILLY DeVILLE - THE BERLIN CONCERTS 2002\nEncoded date                     : UTC 2010-07-07 11:55:36\nWriting application              : mkvmerge v4.0.0 ('The Stars were mine') built on Jun  6 2010 16:18:42\nWriting library                  : libebml v1.0.0 + libmatroska v1.0.0\n\nVideo\nID                               : 1\nFormat                           : AVC\nFormat/Info                      : Advanced Video Codec\nFormat profile                   : &lt;a class=&quot;__cf_email__&quot; href=&quot;/cdn-cgi/l/email-protection&quot; data-cfemail=&quot;1e567779765e522a302f&quot;&gt;[email&amp;#160;protected]&lt;/a&gt;&lt;script data-cfhash='f9e31' type=&quot;text/javascript&quot;&gt;\n/* &lt;![CDATA[ */!function(){try{var t=&quot;currentScript&quot;in document?document.currentScript:function(){for(var t=document.getElementsByTagName(&quot;script&quot;),e=t.length;e--;)if(t[e].getAttribute(&quot;data-cfhash&quot;))return t[e]}();if(t&amp;&amp;t.previousSibling){var e,r,n,i,c=t.previousSibling,a=c.getAttribute(&quot;data-cfemail&quot;);if(a){for(e=&quot;&quot;,r=parseInt(a.substr(0,2),16),n=2;a.length-n;n+=2)i=parseInt(a.substr(n,2),16)^r,e+=String.fromCharCode(i);e=document.createTextNode(e),c.parentNode.replaceChild(e,c)}t.parentNode.removeChild(t);}}catch(u){}}()/* ]]&gt; */&lt;/script&gt;\nFormat settings, CABAC           : Yes\nFormat settings, ReFrames        : 10 frames\nMuxing mode                      : Container profile=&lt;a class=&quot;__cf_email__&quot; href=&quot;/cdn-cgi/l/email-protection&quot; data-cfemail=&quot;7623181d1819011836425847&quot;&gt;[email&amp;#160;protected]&lt;/a&gt;&lt;script data-cfhash='f9e31' type=&quot;text/javascript&quot;&gt;\n/* &lt;![CDATA[ */!function(){try{var t=&quot;currentScript&quot;in document?document.currentScript:function(){for(var t=document.getElementsByTagName(&quot;script&quot;),e=t.length;e--;)if(t[e].getAttribute(&quot;data-cfhash&quot;))return t[e]}();if(t&amp;&amp;t.previousSibling){var e,r,n,i,c=t.previousSibling,a=c.getAttribute(&quot;data-cfemail&quot;);if(a){for(e=&quot;&quot;,r=parseInt(a.substr(0,2),16),n=2;a.length-n;n+=2)i=parseInt(a.substr(n,2),16)^r,e+=String.fromCharCode(i);e=document.createTextNode(e),c.parentNode.replaceChild(e,c)}t.parentNode.removeChild(t);}}catch(u){}}()/* ]]&gt; */&lt;/script&gt;\nCodec ID                         : V_MPEG4/ISO/AVC\nDuration                         : 1h 31mn\nBit rate                         : 1 899 Kbps\nWidth                            : 960 pixels\nHeight                           : 720 pixels\nDisplay aspect ratio             : 4:3\nFrame rate                       : 25.000 fps\nColor space                      : YUV\nChroma subsampling               : 4:2:0\nBit depth                        : 8 bits\nScan type                        : Progressive\nBits/(Pixel*Frame)               : 0.110\nStream size                      : 1.18 GiB (79%)\nWriting library                  : x264 core 98 r1643 59a9e03\n\nAudio\nID                               : 2\nFormat                           : AC-3\nFormat/Info                      : Audio Coding 3\nMode extension                   : CM (complete main)\nCodec ID                         : A_AC3\nDuration                         : 1h 31mn\nBit rate mode                    : Constant\nBit rate                         : 448 Kbps\nChannel(s)                       : 6 channels\nChannel positions                : Front: L C R, Side: L R, LFE\nSampling rate                    : 48.0 KHz\nBit depth                        : 16 bits\nStream size                      : 292 MiB (19%)\nSource                           : WILLY DeVILLE - THE BERLIN CONCERTS 2002 \n                                   DVD-1\n                                   WILLY DeVILLE - UNPLUGGED\n\n","torrent":{"xt":"urn:btih:c3778841d596a3c8aff0bd710522281e71ad35d1","amp;dn":"WILLY+DeVILLE-UNPLUGGED-THE+BERLIN+CONCERTS+2002-%28Y%29%28%C3%82%C2%B0U%C3%82%C2%B0%29","amp;tr":["udp%3A%2F%2Ftracker.openbittorrent.com%3A80","udp%3A%2F%2Fopen.demonii.com%3A1337","udp%3A%2F%2Ftracker.coppersurfer.tk%3A6969","udp%3A%2F%2Fexodus.desync.com%3A6969"],"infoHash":"c3778841d596a3c8aff0bd710522281e71ad35d1","infoHashBuffer":{"type":"Buffer","data":[195,119,136,65,213,150,163,200,175,240,189,113,5,34,40,30,113,173,53,209]},"announce":[],"urlList":[]}}